PathFileType	4	(X/Y/Z)	C:/Users/opensim2020/Desktop/walking_exp_matlab/subject01_walking14_straight_02.trc																																																																																																																												
DataRate	CameraRate	NumFrames	NumMarkers	Units	OrigDataRate	OrigDataStartFrame	OrigNumFrames																																																																																																																								
100	100	8	42	mm	100	1178	125																																																																																																																								
Frame#	Time	LFHD			RFHD			LBHD			RBHD			C7			T10			CLAV			STRN			RBAK			LSHO			LUPA			LELB			LFRM			LWRA			LWRB			LFIN			RSHO			RUPA			RELB			RFRM			RWRA			RWRB			RFIN			LASI			RASI			LPSI			RPSI			LTHI			LKNE			LTIB			LANK			LHEE			LTOE			RTHI			RKNE			RTIB			RANK			RHEE			RTOE			*39			*40			*41		
		X1	Y1	Z1	X2	Y2	Z2	X3	Y3	Z3	X4	Y4	Z4	X5	Y5	Z5	X6	Y6	Z6	X7	Y7	Z7	X8	Y8	Z8	X9	Y9	Z9	X10	Y10	Z10	X11	Y11	Z11	X12	Y12	Z12	X13	Y13	Z13	X14	Y14	Z14	X15	Y15	Z15	X16	Y16	Z16	X17	Y17	Z17	X18	Y18	Z18	X19	Y19	Z19	X20	Y20	Z20	X21	Y21	Z21	X22	Y22	Z22	X23	Y23	Z23	X24	Y24	Z24	X25	Y25	Z25	X26	Y26	Z26	X27	Y27	Z27	X28	Y28	Z28	X29	Y29	Z29	X30	Y30	Z30	X31	Y31	Z31	X32	Y32	Z32	X33	Y33	Z33	X34	Y34	Z34	X35	Y35	Z35	X36	Y36	Z36	X37	Y37	Z37	X38	Y38	Z38	X39	Y39	Z39	X40	Y40	Z40	X41	Y41	Z41	X42	Y42	Z42
																																																																																																																															
32	0.31	-574.95789	1668.05542	1008.44025	-528.27917	1674.93384	1112.73584	-683.07263	1626.81555	1053.07324	-637.3504	1633.48926	1164.65002	-715.89368	1438.38025	1080.74048	-768.44012	1146.40527	1087.83008	-572.11603	1364.08264	1078.60217	-538.48389	1207.98059	1078.05798	-780.96112	1251.24316	1158.99487	-633.27289	1394.70459	918.20355	-670.25574	1212.17236	833.50946	-700.85498	1062.35486	834.31299	-666.20203	952.29443	813.16687	-591.16632	834.49963	831.69373	-647.09082	831.18066	810.61761	-603.87769	761.31769	797.24524	-635.03436	1405.60962	1228.35242	-720.73865	1220.47559	1331.36096	-726.03967	1091.92346	1341.46484	-677.44507	977.02844	1369.77112	-573.28357	882.43091	1347.70044	-615.23383	871.0509	1385.17175	-558.70776	808.12946	1388.22839	-601.04218	935.70758	981.64301	-606.94891	931.82581	1198.20496	-786.08124	953.0321	1031.87952	-785.81171	951.84406	1177.53186	-618.83533	600.71564	932.24908	-620.52148	466.40863	955.51373	-685.43506	287.1846	953.57831	-734.82465	76.98574	1013.55267	-782.12103	50.7782	1066.88306	-590.18231	37.49249	1006.34644	-606.64813	603.04089	1270.45764	-577.85205	447.45462	1258.73669	-722.97357	349.91364	1258.80652	-875.01892	210.54265	1212.13635	-932.39178	215.44855	1157.5293	-814.69775	79.3212	1214.81653	-545.21283	1708.71753	1093.80676	-1973.17029	1023.45453	3102.04785	-2012.52539	1022.09467	3140.8999
33	0.32	-561.22998	1668.63	1008.56964	-514.03009	1675.07507	1112.60266	-669.3714	1627.81079	1053.63794	-623.18719	1634.09277	1165.17249	-702.92657	1439.2334	1080.56567	-755.93689	1147.43335	1087.37402	-559.31769	1364.84985	1078.7168	-525.96588	1208.68298	1078.026	-768.48376	1252.39612	1158.62158	-620.18542	1395.849	918.3501	-655.86658	1213.50562	833.10938	-684.52753	1062.69092	833.57153	-645.20099	953.71155	813.02051	-564.72968	839.79645	832.2937	-620.53845	833.67407	811.41449	-573.96161	765.91638	798.28345	-622.28381	1406.23059	1228.22314	-708.80066	1221.10376	1330.61377	-715.11237	1092.76208	1340.05933	-670.78418	976.41272	1368.56396	-570.61523	877.3078	1346.54773	-612.88159	867.83734	1384.05566	-559.36688	802.07233	1386.71399	-587.87927	936.82056	981.04944	-594.42267	933.375	1197.46667	-773.96582	954.20349	1032.60205	-773.16046	953.11072	1178.24011	-612.94391	600.72345	932.75183	-617.40088	466.30695	955.60077	-684.16522	287.65915	953.94165	-734.4267	77.55827	1013.70447	-781.81647	51.51249	1067.24854	-589.97839	37.39274	1006.28723	-587.31567	606.02008	1270.24512	-554.84949	451.23813	1257.90125	-696.26593	347.95944	1257.88599	-841.7196	201.6843	1211.10254	-899.79645	202.66797	1156.45471	-772.6297	75.53316	1214.18652	-530.8869	1709.01379	1093.85388	-1973.26855	1023.54443	3101.99048	-2012.49048	1022.08105	3140.75684
34	0.33	-547.73083	1669.16663	1008.69727	-499.91	1675.14172	1112.63672	-655.63367	1628.61304	1054.34143	-608.69727	1634.21924	1165.13464	-690.03888	1439.95349	1080.54614	-743.50092	1148.29541	1086.92822	-546.50641	1365.35706	1078.7583	-513.42444	1209.1228	1078.20044	-755.97681	1253.29089	1158.23499	-607.06085	1396.84814	918.54431	-641.66357	1214.70276	832.65778	-668.29773	1063.07129	833.29785	-624.42126	955.4079	812.92816	-538.5213	845.68713	832.91595	-593.7923	836.685	811.65576	-544.00861	771.29333	799.09283	-609.56555	1406.69617	1228.29797	-696.86829	1221.57336	1330.12732	-704.10834	1093.4126	1338.76721	-664.06628	975.76141	1367.40894	-568.11816	872.39984	1345.7041	-610.77191	864.8988	1383.24695	-560.44165	796.43475	1385.56177	-576.79327	937.16339	980.7782	-581.96448	934.75635	1197.07971	-761.80621	955.19891	1033.26636	-760.66443	954.26196	1178.90417	-607.02417	600.7204	933.27173	-614.24023	466.32178	955.67889	-682.76233	288.1582	954.2688	-734.29474	77.99931	1013.9209	-781.26141	52.41468	1067.89246	-589.83453	37.36404	1006.24866	-568.47729	608.92468	1270.0459	-532.48773	454.83865	1257.07581	-669.39075	345.23425	1257.0835	-807.73492	192.09297	1210.3219	-865.96283	189.13036	1155.6178	-730.33533	71.56242	1214.44128	-516.63812	1709.15161	1094.00439	-1973.146	1023.55884	3102.17261	-2012.49646	1022.10291	3140.77759
35	0.34	-534.18842	1669.39355	1008.97455	-485.82199	1675.00879	1112.73633	-642.24347	1629.28394	1054.9408	-594.45465	1634.33606	1165.49121	-677.08337	1440.43872	1080.52478	-730.92426	1148.91821	1086.5166	-533.63409	1365.69324	1078.93542	-500.83282	1209.49707	1078.36877	-743.42798	1253.94104	1157.75671	-594.02319	1397.6438	918.8501	-627.6156	1215.85107	832.26239	-652.3598	1063.39673	832.60626	-603.7312	957.25488	812.84924	-512.47223	852.19507	833.49597	-567.13428	840.28278	812.79248	-514.11829	777.39447	800.23285	-596.87762	1406.93921	1228.37646	-684.86652	1221.8927	1329.79321	-693.0672	1093.94556	1337.64478	-657.43317	975.33661	1366.55188	-565.7561	867.70636	1345.08203	-608.80011	862.15564	1382.54761	-561.64404	791.16028	1384.71326	-564.93481	937.42798	980.6806	-569.58893	935.93945	1196.77832	-749.66199	955.99615	1033.8125	-748.15149	955.02441	1179.5293	-600.96094	600.68158	933.78662	-611.07819	466.28006	955.77234	-681.15076	288.80145	954.73865	-733.89734	78.80887	1014.13171	-781.15314	53.38132	1068.21021	-589.55188	37.33625	1006.32721	-549.91687	611.68542	1269.6134	-510.7977	458.43039	1256.02722	-642.37219	341.84802	1256.48315	-772.8504	181.93637	1209.78186	-830.78741	174.76678	1155.20105	-687.25848	67.69493	1215.53955	-502.40466	1709.2406	1094.47107	-1973.06348	1023.63318	3102.07861	-2012.49438	1022.15399	3140.8064
36	0.35	-520.54614	1669.36169	1009.39813	-471.86218	1674.79919	1112.98535	-628.53876	1629.47656	1055.73584	-580.38947	1634.22803	1165.96118	-664.04999	1440.69592	1080.58301	-718.37042	1149.31152	1086.11963	-520.6778	1365.72815	1079.27454	-488.22067	1209.57788	1078.67505	-730.82794	1254.35803	1157.26929	-580.9516	1398.2644	919.01752	-613.82074	1216.68726	831.98065	-636.9353	1063.48462	831.68158	-583.09125	959.24945	812.80994	-486.72833	859.22638	834.1994	-540.60107	844.35815	813.18134	-484.44763	784.41132	801.19153	-584.18951	1406.97119	1228.4989	-672.99579	1222.0481	1329.50854	-682.00354	1094.26428	1336.55261	-650.73969	974.69861	1365.69385	-563.46082	863.37543	1344.73047	-606.82324	859.703	1382.03992	-562.95032	786.35651	1383.91699	-553.0694	937.57373	980.73547	-557.23395	936.98846	1196.60681	-737.5509	956.63062	1034.32507	-735.68097	955.58978	1180.08459	-594.75342	600.63922	934.3291	-607.76422	466.32867	955.83472	-679.49597	289.48505	955.21191	-733.09998	79.48662	1014.54883	-780.58807	54.64432	1068.73352	-589.43164	37.33091	1006.32635	-531.87311	614.34863	1269.47546	-489.68643	461.50131	1254.96814	-615.18896	337.83173	1256.04578	-737.07495	171.22702	1209.39343	-794.3717	159.56528	1154.28882	-643.51044	64.85023	1217.62134	-488.49533	1708.96973	1094.67529	-1973.18567	1023.53381	3102.0061	-2012.45276	1022.0437	3140.83228
37	0.36	-507.16965	1669.34583	1009.69965	-458.03952	1674.33704	1113.14526	-614.95471	1629.55334	1056.51062	-566.4057	1634.02551	1166.59802	-650.95929	1440.8623	1080.77991	-705.8363	1149.56653	1085.82715	-507.67429	1365.64038	1079.60352	-475.55948	1209.47656	1078.99194	-718.21436	1254.49963	1156.77209	-567.80115	1398.65527	919.40662	-600.3197	1217.42542	831.80237	-621.15649	1063.50684	830.97882	-562.70758	961.49146	812.6947	-461.26855	866.70331	834.922	-514.30579	848.86499	814.12433	-455.14105	791.9845	802.25891	-571.52832	1406.84949	1228.74438	-661.03375	1221.95398	1329.25549	-670.90302	1094.44958	1335.58386	-644.08289	974.25	1364.98633	-561.06158	859.40924	1344.66174	-604.82086	857.55292	1381.81299	-564.18994	781.74146	1383.02686	-541.76953	937.20612	980.92499	-544.81104	937.67877	1196.73096	-725.48126	957.09094	1034.85522	-723.21405	955.88336	1180.64124	-588.13947	600.61853	934.92798	-604.28326	466.34924	955.98352	-677.53577	290.16589	955.72253	-732.70355	80.47442	1014.86847	-780.21808	56.0262	1069.17126	-589.45044	37.12681	1006.35492	-514.3938	616.83093	1269.37891	-469.28137	464.28464	1254.047	-587.9361	333.42996	1255.84424	-700.4223	160.51413	1209.69666	-756.47437	144.10893	1154.62061	-599.29852	61.53175	1219.75671	-474.63168	1708.68115	1095.0105	-1973.16394	1023.39636	3101.94214	-2012.48303	1022.03284	3140.82861
38	0.37	-493.84311	1669.31128	1010.33936	-444.2265	1673.89502	1113.46545	-601.44775	1629.49524	1057.39001	-552.46838	1633.62146	1167.21973	-637.85028	1440.84583	1080.98645	-693.24933	1149.60608	1085.62146	-494.63525	1365.3147	1080.00708	-462.85745	1209.13318	1079.36646	-705.49268	1254.38696	1156.37708	-554.70648	1398.80322	919.73126	-586.68542	1217.78357	831.62695	-605.29797	1063.5741	830.25153	-542.39343	963.76587	812.65533	-436.29068	874.58551	835.69226	-488.23734	853.81091	815.04712	-425.99301	800.22168	803.42841	-558.79321	1406.54492	1229.0365	-648.97009	1221.60327	1328.98254	-659.81238	1094.49426	1334.72852	-637.37561	973.91614	1364.45154	-558.84033	855.54474	1344.68347	-602.76019	855.69257	1381.53064	-565.39557	777.95917	1382.69263	-529.56213	936.82574	981.04828	-532.26727	938.17542	1196.94836	-713.42639	957.0932	1035.33997	-710.87128	955.91058	1181.17908	-581.31433	600.5791	935.59937	-600.72485	466.33029	956.06653	-675.63141	290.89822	956.27576	-732.6499	81.79238	1015.07001	-779.59344	57.36576	1069.82397	-589.42078	36.99272	1006.42664	-497.28473	618.97125	1269.42078	-449.64026	466.79877	1252.94275	-560.72473	328.73209	1255.82483	-662.61432	149.31767	1210.2782	-717.80481	128.326	1154.80103	-554.75854	59.02136	1222.56921	-460.92978	1708.09521	1095.60059	-1973.24438	1023.35748	3102.08447	-2012.56104	1022.05292	3140.61499
39	0.38	-480.41711	1668.95178	1010.96307	-430.44138	1673.36841	1114.06604	-587.90112	1629.27185	1058.40466	-538.55072	1633.10413	1167.98547	-624.7066	1440.71191	1081.31763	-680.67554	1149.55518	1085.63306	-481.52472	1364.90796	1080.52197	-450.17465	1208.64087	1079.74939	-692.87964	1254.17346	1156.17493	-541.48639	1398.8208	920.19214	-573.39014	1218.0481	831.64099	-589.94904	1063.3595	828.94507	-522.25482	966.26825	812.56732	-411.84698	882.74274	836.5705	-462.59189	859.17657	815.96783	-397.46167	808.92792	804.68353	-545.99097	1406.15588	1229.68152	-637.0141	1221.10864	1328.88879	-648.70874	1094.40454	1333.98096	-630.52356	973.55469	1363.901	-556.38226	852.12933	1344.92224	-600.6427	854.20593	1381.70081	-566.30212	774.64032	1382.67651	-517.60675	936.19434	981.35693	-519.59985	938.36047	1197.23291	-701.31824	956.92548	1035.90393	-698.47961	955.63135	1181.776	-574.41229	600.54413	936.36749	-596.88324	466.5289	956.09106	-673.46442	291.76999	956.88904	-731.74707	82.71264	1015.72986	-778.99792	59.09124	1070.56531	-589.3703	36.96532	1006.5061	-480.69876	620.77155	1269.51111	-430.76819	468.74423	1251.99597	-533.40643	323.81107	1255.99072	-624.00073	138.33675	1211.48572	-677.04663	112.97326	1156.32275	-509.82013	56.86106	1225.21167	-447.22263	1707.59607	1096.0813	-1973.04272	1023.93854	3102.10864	-2012.59216	1022.164	3140.84253
